<mxfile host="app.diagrams.net" modified="2024-05-18T06:08:45.670Z" agent="Mozilla/5.0 (X11; Linux x86_64) AppleWebKit/537.36 (KHTML, like Gecko) Chrome/124.0.0.0 Safari/537.36" etag="wp2gnkDMRg7ZuZaKeEaq" version="24.4.4" type="device">
  <diagram name="Page-1" id="zUwUcyuD3WJdZtyoWrKV">
    <mxGraphModel dx="3434" dy="1336" grid="1" gridSize="10" guides="1" tooltips="1" connect="1" arrows="1" fold="1" page="1" pageScale="1" pageWidth="827" pageHeight="1169" math="0" shadow="0">
      <root>
        <mxCell id="0" />
        <mxCell id="1" parent="0" />
        <mxCell id="TtmzYOufV2jlAie-JXBO-93" value="" style="rounded=0;whiteSpace=wrap;html=1;dashed=1;dashPattern=8 8;strokeColor=#000000;fillColor=#DFDFDF;" vertex="1" parent="1">
          <mxGeometry x="500" y="300" width="1180" height="700" as="geometry" />
        </mxCell>
        <mxCell id="TtmzYOufV2jlAie-JXBO-94" value="" style="rounded=0;whiteSpace=wrap;html=1;dashed=1;fillColor=#C4C4C4;strokeColor=#36393d;" vertex="1" parent="1">
          <mxGeometry x="560" y="360" width="1083.33" height="610" as="geometry" />
        </mxCell>
        <mxCell id="TtmzYOufV2jlAie-JXBO-95" value="&lt;h1 style=&quot;margin-top: 0px;&quot;&gt;Subnet&lt;/h1&gt;&lt;p&gt;&lt;span style=&quot;color: rgb(22, 25, 31); font-family: &amp;quot;Amazon Ember&amp;quot;, &amp;quot;Helvetica Neue&amp;quot;, Roboto, Arial, sans-serif; font-size: 14px; background-color: rgb(255, 255, 255);&quot;&gt;11.0.3.0/24&lt;/span&gt;&lt;br&gt;&lt;/p&gt;" style="text;html=1;whiteSpace=wrap;overflow=hidden;rounded=0;" vertex="1" parent="1">
          <mxGeometry x="576.33" y="370" width="180" height="70" as="geometry" />
        </mxCell>
        <mxCell id="TtmzYOufV2jlAie-JXBO-96" value="" style="rounded=0;whiteSpace=wrap;html=1;fillColor=#C9C9C9;" vertex="1" parent="1">
          <mxGeometry x="683.33" y="420" width="890" height="530" as="geometry" />
        </mxCell>
        <mxCell id="TtmzYOufV2jlAie-JXBO-97" value="" style="group;fillColor=none;" vertex="1" connectable="0" parent="1">
          <mxGeometry x="923.33" y="429" width="553.3299999999999" height="500" as="geometry" />
        </mxCell>
        <mxCell id="TtmzYOufV2jlAie-JXBO-98" value="" style="rounded=0;whiteSpace=wrap;html=1;fillColor=#DEDEDE;" vertex="1" parent="TtmzYOufV2jlAie-JXBO-97">
          <mxGeometry y="40" width="500" height="460" as="geometry" />
        </mxCell>
        <mxCell id="TtmzYOufV2jlAie-JXBO-99" value="" style="aspect=fixed;sketch=0;html=1;dashed=0;whitespace=wrap;verticalLabelPosition=bottom;verticalAlign=top;fillColor=#2875E2;strokeColor=#ffffff;points=[[0.005,0.63,0],[0.1,0.2,0],[0.9,0.2,0],[0.5,0,0],[0.995,0.63,0],[0.72,0.99,0],[0.5,1,0],[0.28,0.99,0]];shape=mxgraph.kubernetes.icon2;kubernetesLabel=1;prIcon=node" vertex="1" parent="TtmzYOufV2jlAie-JXBO-97">
          <mxGeometry x="470" width="83.33" height="80" as="geometry" />
        </mxCell>
        <mxCell id="TtmzYOufV2jlAie-JXBO-100" value="&lt;font style=&quot;font-size: 25px;&quot;&gt;eks node : ne_nodepool&lt;/font&gt;" style="text;html=1;align=center;verticalAlign=middle;whiteSpace=wrap;rounded=0;" vertex="1" parent="TtmzYOufV2jlAie-JXBO-97">
          <mxGeometry x="67" y="40" width="390" height="30" as="geometry" />
        </mxCell>
        <mxCell id="TtmzYOufV2jlAie-JXBO-101" value="" style="group" vertex="1" connectable="0" parent="TtmzYOufV2jlAie-JXBO-97">
          <mxGeometry x="60" y="70" width="140" height="120" as="geometry" />
        </mxCell>
        <mxCell id="TtmzYOufV2jlAie-JXBO-102" value="Nginx (Pod)" style="rounded=0;whiteSpace=wrap;html=1;fillColor=#b0e3e6;strokeColor=#0e8088;" vertex="1" parent="TtmzYOufV2jlAie-JXBO-101">
          <mxGeometry x="20" y="20" width="120" height="100" as="geometry" />
        </mxCell>
        <mxCell id="TtmzYOufV2jlAie-JXBO-103" value="" style="aspect=fixed;sketch=0;html=1;dashed=0;whitespace=wrap;verticalLabelPosition=bottom;verticalAlign=top;fillColor=#2875E2;strokeColor=#ffffff;points=[[0.005,0.63,0],[0.1,0.2,0],[0.9,0.2,0],[0.5,0,0],[0.995,0.63,0],[0.72,0.99,0],[0.5,1,0],[0.28,0.99,0]];shape=mxgraph.kubernetes.icon2;kubernetesLabel=1;prIcon=pod" vertex="1" parent="TtmzYOufV2jlAie-JXBO-101">
          <mxGeometry x="110" width="50" height="48" as="geometry" />
        </mxCell>
        <mxCell id="TtmzYOufV2jlAie-JXBO-104" value="" style="group" vertex="1" connectable="0" parent="TtmzYOufV2jlAie-JXBO-97">
          <mxGeometry x="80" y="210" width="140" height="120" as="geometry" />
        </mxCell>
        <mxCell id="TtmzYOufV2jlAie-JXBO-105" value="node-exporte (Pod)" style="rounded=0;whiteSpace=wrap;html=1;fillColor=#b0e3e6;strokeColor=#0e8088;" vertex="1" parent="TtmzYOufV2jlAie-JXBO-104">
          <mxGeometry y="20" width="120" height="100" as="geometry" />
        </mxCell>
        <mxCell id="TtmzYOufV2jlAie-JXBO-106" value="" style="aspect=fixed;sketch=0;html=1;dashed=0;whitespace=wrap;verticalLabelPosition=bottom;verticalAlign=top;fillColor=#2875E2;strokeColor=#ffffff;points=[[0.005,0.63,0],[0.1,0.2,0],[0.9,0.2,0],[0.5,0,0],[0.995,0.63,0],[0.72,0.99,0],[0.5,1,0],[0.28,0.99,0]];shape=mxgraph.kubernetes.icon2;kubernetesLabel=1;prIcon=pod" vertex="1" parent="TtmzYOufV2jlAie-JXBO-104">
          <mxGeometry x="90" width="50" height="48" as="geometry" />
        </mxCell>
        <mxCell id="TtmzYOufV2jlAie-JXBO-107" value="" style="group" vertex="1" connectable="0" parent="TtmzYOufV2jlAie-JXBO-97">
          <mxGeometry x="80" y="350" width="140" height="120" as="geometry" />
        </mxCell>
        <mxCell id="TtmzYOufV2jlAie-JXBO-108" value="node-metrics-cronjob&amp;nbsp;(cronjob)" style="rounded=0;whiteSpace=wrap;html=1;fillColor=#CCCCFF;strokeColor=#CC99FF;" vertex="1" parent="TtmzYOufV2jlAie-JXBO-107">
          <mxGeometry y="20" width="120" height="100" as="geometry" />
        </mxCell>
        <mxCell id="TtmzYOufV2jlAie-JXBO-109" value="" style="aspect=fixed;sketch=0;html=1;dashed=0;whitespace=wrap;verticalLabelPosition=bottom;verticalAlign=top;fillColor=#2875E2;strokeColor=#ffffff;points=[[0.005,0.63,0],[0.1,0.2,0],[0.9,0.2,0],[0.5,0,0],[0.995,0.63,0],[0.72,0.99,0],[0.5,1,0],[0.28,0.99,0]];shape=mxgraph.kubernetes.icon2;prIcon=cronjob" vertex="1" parent="TtmzYOufV2jlAie-JXBO-107">
          <mxGeometry x="90" width="50" height="48" as="geometry" />
        </mxCell>
        <mxCell id="TtmzYOufV2jlAie-JXBO-110" value="Node Volume" style="strokeWidth=2;html=1;shape=mxgraph.flowchart.database;whiteSpace=wrap;" vertex="1" parent="TtmzYOufV2jlAie-JXBO-97">
          <mxGeometry x="290" y="210" width="80" height="90" as="geometry" />
        </mxCell>
        <mxCell id="TtmzYOufV2jlAie-JXBO-111" value="" style="endArrow=classic;html=1;rounded=0;entryX=0;entryY=0.5;entryDx=0;entryDy=0;entryPerimeter=0;exitX=1;exitY=0.5;exitDx=0;exitDy=0;" edge="1" parent="TtmzYOufV2jlAie-JXBO-97" source="TtmzYOufV2jlAie-JXBO-102" target="TtmzYOufV2jlAie-JXBO-110">
          <mxGeometry width="50" height="50" relative="1" as="geometry">
            <mxPoint x="630" y="160" as="sourcePoint" />
            <mxPoint x="680" y="110" as="targetPoint" />
          </mxGeometry>
        </mxCell>
        <mxCell id="TtmzYOufV2jlAie-JXBO-112" value="" style="endArrow=classic;html=1;rounded=0;entryX=0;entryY=0.5;entryDx=0;entryDy=0;entryPerimeter=0;exitX=1;exitY=0.5;exitDx=0;exitDy=0;" edge="1" parent="TtmzYOufV2jlAie-JXBO-97" source="TtmzYOufV2jlAie-JXBO-105" target="TtmzYOufV2jlAie-JXBO-110">
          <mxGeometry width="50" height="50" relative="1" as="geometry">
            <mxPoint x="210" y="191" as="sourcePoint" />
            <mxPoint x="340" y="280" as="targetPoint" />
          </mxGeometry>
        </mxCell>
        <mxCell id="TtmzYOufV2jlAie-JXBO-113" value="" style="endArrow=classic;html=1;rounded=0;exitX=1;exitY=0.58;exitDx=0;exitDy=0;exitPerimeter=0;entryX=0;entryY=0.5;entryDx=0;entryDy=0;entryPerimeter=0;" edge="1" parent="TtmzYOufV2jlAie-JXBO-97" source="TtmzYOufV2jlAie-JXBO-108" target="TtmzYOufV2jlAie-JXBO-110">
          <mxGeometry width="50" height="50" relative="1" as="geometry">
            <mxPoint x="210" y="191" as="sourcePoint" />
            <mxPoint x="810" y="410" as="targetPoint" />
          </mxGeometry>
        </mxCell>
        <mxCell id="TtmzYOufV2jlAie-JXBO-114" value="&lt;h1 style=&quot;margin-top: 0px;&quot;&gt;Node Volume&lt;/h1&gt;&lt;p&gt;Here we are using the common node volume to store and host the node metrics txt file generating the job&lt;br&gt;&lt;br&gt;NOTE :&amp;nbsp; As this is not a persistence volume. we may lost files if node deleted&lt;/p&gt;" style="text;html=1;whiteSpace=wrap;overflow=hidden;rounded=0;" vertex="1" parent="TtmzYOufV2jlAie-JXBO-97">
          <mxGeometry x="290" y="300" width="167" height="190" as="geometry" />
        </mxCell>
        <mxCell id="TtmzYOufV2jlAie-JXBO-115" value="Amazon EKS" style="sketch=0;outlineConnect=0;fontColor=#232F3E;gradientColor=none;strokeColor=#ffffff;fillColor=#232F3E;dashed=0;verticalLabelPosition=middle;verticalAlign=bottom;align=center;html=1;whiteSpace=wrap;fontSize=10;fontStyle=1;spacing=3;shape=mxgraph.aws4.productIcon;prIcon=mxgraph.aws4.eks;" vertex="1" parent="1">
          <mxGeometry x="1523.33" y="390" width="80" height="100" as="geometry" />
        </mxCell>
        <mxCell id="TtmzYOufV2jlAie-JXBO-116" value="Nginx Service&lt;div&gt;(Type : Load Balancer)&lt;/div&gt;" style="aspect=fixed;sketch=0;html=1;dashed=0;whitespace=wrap;verticalLabelPosition=bottom;verticalAlign=top;fillColor=#2875E2;strokeColor=#ffffff;points=[[0.005,0.63,0],[0.1,0.2,0],[0.9,0.2,0],[0.5,0,0],[0.995,0.63,0],[0.72,0.99,0],[0.5,1,0],[0.28,0.99,0]];shape=mxgraph.kubernetes.icon2;prIcon=svc" vertex="1" parent="1">
          <mxGeometry x="783.33" y="538" width="50" height="48" as="geometry" />
        </mxCell>
        <mxCell id="TtmzYOufV2jlAie-JXBO-117" value="&lt;span style=&quot;text-wrap: wrap;&quot;&gt;node-export&lt;/span&gt;&amp;nbsp;Service&lt;div&gt;(Type : Load Balancer)&lt;/div&gt;" style="aspect=fixed;sketch=0;html=1;dashed=0;whitespace=wrap;verticalLabelPosition=bottom;verticalAlign=top;fillColor=#2875E2;strokeColor=#ffffff;points=[[0.005,0.63,0],[0.1,0.2,0],[0.9,0.2,0],[0.5,0,0],[0.995,0.63,0],[0.72,0.99,0],[0.5,1,0],[0.28,0.99,0]];shape=mxgraph.kubernetes.icon2;prIcon=svc" vertex="1" parent="1">
          <mxGeometry x="783.33" y="680" width="50" height="48" as="geometry" />
        </mxCell>
        <mxCell id="TtmzYOufV2jlAie-JXBO-118" value="" style="endArrow=classic;html=1;rounded=0;exitX=0;exitY=0.5;exitDx=0;exitDy=0;entryX=0.995;entryY=0.63;entryDx=0;entryDy=0;entryPerimeter=0;" edge="1" parent="1" source="TtmzYOufV2jlAie-JXBO-105" target="TtmzYOufV2jlAie-JXBO-117">
          <mxGeometry width="50" height="50" relative="1" as="geometry">
            <mxPoint x="913.33" y="750" as="sourcePoint" />
            <mxPoint x="963.33" y="700" as="targetPoint" />
          </mxGeometry>
        </mxCell>
        <mxCell id="TtmzYOufV2jlAie-JXBO-119" value="" style="endArrow=classic;html=1;rounded=0;exitX=0;exitY=0.5;exitDx=0;exitDy=0;entryX=0.995;entryY=0.63;entryDx=0;entryDy=0;entryPerimeter=0;" edge="1" parent="1" source="TtmzYOufV2jlAie-JXBO-102" target="TtmzYOufV2jlAie-JXBO-116">
          <mxGeometry width="50" height="50" relative="1" as="geometry">
            <mxPoint x="913.33" y="750" as="sourcePoint" />
            <mxPoint x="963.33" y="700" as="targetPoint" />
          </mxGeometry>
        </mxCell>
        <mxCell id="TtmzYOufV2jlAie-JXBO-121" value="&lt;h1 style=&quot;margin-top: 0px;&quot;&gt;VPC&lt;/h1&gt;" style="text;html=1;whiteSpace=wrap;overflow=hidden;rounded=0;" vertex="1" parent="1">
          <mxGeometry x="516.3299999999999" y="310" width="60" height="40" as="geometry" />
        </mxCell>
        <mxCell id="TtmzYOufV2jlAie-JXBO-124" value="Classic Load Ba-lancer&lt;div&gt;(Nginx)&lt;/div&gt;" style="outlineConnect=0;dashed=0;verticalLabelPosition=bottom;verticalAlign=top;align=center;html=1;shape=mxgraph.aws3.classic_load_balancer;fillColor=#F58536;gradientColor=none;" vertex="1" parent="1">
          <mxGeometry x="180" y="528.5" width="70" height="69" as="geometry" />
        </mxCell>
        <mxCell id="TtmzYOufV2jlAie-JXBO-125" value="Classic Load Ba-lancer&lt;div&gt;(Nginx)&lt;/div&gt;" style="outlineConnect=0;dashed=0;verticalLabelPosition=bottom;verticalAlign=top;align=center;html=1;shape=mxgraph.aws3.classic_load_balancer;fillColor=#F58536;gradientColor=none;" vertex="1" parent="1">
          <mxGeometry x="190" y="670.5" width="70" height="69" as="geometry" />
        </mxCell>
        <mxCell id="TtmzYOufV2jlAie-JXBO-126" value="NAT" style="outlineConnect=0;dashed=0;verticalLabelPosition=bottom;verticalAlign=top;align=center;html=1;shape=mxgraph.aws3.vpc_nat_gateway;fillColor=#F58534;gradientColor=none;" vertex="1" parent="1">
          <mxGeometry x="470" y="599" width="65" height="70" as="geometry" />
        </mxCell>
        <mxCell id="TtmzYOufV2jlAie-JXBO-128" style="edgeStyle=orthogonalEdgeStyle;rounded=0;orthogonalLoop=1;jettySize=auto;html=1;entryX=1;entryY=0.5;entryDx=0;entryDy=0;entryPerimeter=0;" edge="1" parent="1" source="TtmzYOufV2jlAie-JXBO-116" target="TtmzYOufV2jlAie-JXBO-126">
          <mxGeometry relative="1" as="geometry" />
        </mxCell>
        <mxCell id="TtmzYOufV2jlAie-JXBO-129" style="edgeStyle=orthogonalEdgeStyle;rounded=0;orthogonalLoop=1;jettySize=auto;html=1;entryX=1;entryY=0.5;entryDx=0;entryDy=0;entryPerimeter=0;" edge="1" parent="1" source="TtmzYOufV2jlAie-JXBO-117" target="TtmzYOufV2jlAie-JXBO-126">
          <mxGeometry relative="1" as="geometry">
            <mxPoint x="535" y="704" as="targetPoint" />
          </mxGeometry>
        </mxCell>
        <mxCell id="TtmzYOufV2jlAie-JXBO-130" style="edgeStyle=orthogonalEdgeStyle;rounded=0;orthogonalLoop=1;jettySize=auto;html=1;entryX=1;entryY=0.5;entryDx=0;entryDy=0;entryPerimeter=0;" edge="1" parent="1" source="TtmzYOufV2jlAie-JXBO-126" target="TtmzYOufV2jlAie-JXBO-124">
          <mxGeometry relative="1" as="geometry">
            <Array as="points">
              <mxPoint x="450" y="634" />
              <mxPoint x="450" y="562" />
            </Array>
          </mxGeometry>
        </mxCell>
        <mxCell id="TtmzYOufV2jlAie-JXBO-131" style="edgeStyle=orthogonalEdgeStyle;rounded=0;orthogonalLoop=1;jettySize=auto;html=1;entryX=1;entryY=0.5;entryDx=0;entryDy=0;entryPerimeter=0;" edge="1" parent="1" source="TtmzYOufV2jlAie-JXBO-126" target="TtmzYOufV2jlAie-JXBO-125">
          <mxGeometry relative="1" as="geometry">
            <mxPoint x="470" y="704" as="sourcePoint" />
            <Array as="points">
              <mxPoint x="450" y="634" />
              <mxPoint x="450" y="703" />
            </Array>
          </mxGeometry>
        </mxCell>
        <mxCell id="TtmzYOufV2jlAie-JXBO-146" style="edgeStyle=orthogonalEdgeStyle;rounded=0;orthogonalLoop=1;jettySize=auto;html=1;startArrow=classicThin;startFill=1;" edge="1" parent="1" source="TtmzYOufV2jlAie-JXBO-132" target="TtmzYOufV2jlAie-JXBO-144">
          <mxGeometry relative="1" as="geometry" />
        </mxCell>
        <mxCell id="TtmzYOufV2jlAie-JXBO-132" value="AWS ACM" style="outlineConnect=0;dashed=0;verticalLabelPosition=bottom;verticalAlign=top;align=center;html=1;shape=mxgraph.aws3.certificate_manager_2;fillColor=#759C3E;gradientColor=none;" vertex="1" parent="1">
          <mxGeometry x="377" y="298.5" width="73.5" height="63" as="geometry" />
        </mxCell>
        <mxCell id="TtmzYOufV2jlAie-JXBO-133" value="" style="endArrow=classic;html=1;rounded=0;exitX=0.5;exitY=0;exitDx=0;exitDy=0;exitPerimeter=0;entryX=0;entryY=0.5;entryDx=0;entryDy=0;entryPerimeter=0;startArrow=classic;startFill=1;" edge="1" parent="1" source="TtmzYOufV2jlAie-JXBO-124" target="TtmzYOufV2jlAie-JXBO-132">
          <mxGeometry width="50" height="50" relative="1" as="geometry">
            <mxPoint x="230" y="450" as="sourcePoint" />
            <mxPoint x="280" y="400" as="targetPoint" />
            <Array as="points">
              <mxPoint x="215" y="330" />
            </Array>
          </mxGeometry>
        </mxCell>
        <mxCell id="TtmzYOufV2jlAie-JXBO-134" value="&lt;font style=&quot;font-size: 20px;&quot;&gt;SSL (ARN)&lt;/font&gt;" style="text;html=1;align=center;verticalAlign=middle;whiteSpace=wrap;rounded=0;" vertex="1" parent="1">
          <mxGeometry x="140" y="290" width="205" height="30" as="geometry" />
        </mxCell>
        <mxCell id="TtmzYOufV2jlAie-JXBO-135" value="" style="endArrow=classic;html=1;rounded=0;entryX=0;entryY=0.5;entryDx=0;entryDy=0;entryPerimeter=0;startArrow=classic;startFill=1;" edge="1" parent="1" source="TtmzYOufV2jlAie-JXBO-125">
          <mxGeometry width="50" height="50" relative="1" as="geometry">
            <mxPoint x="225" y="538" as="sourcePoint" />
            <mxPoint x="387" y="340" as="targetPoint" />
            <Array as="points">
              <mxPoint x="380" y="330" />
            </Array>
          </mxGeometry>
        </mxCell>
        <mxCell id="TtmzYOufV2jlAie-JXBO-136" value="&lt;span style=&quot;font-size: 20px;&quot;&gt;SSL (ARN)&lt;/span&gt;" style="text;html=1;align=center;verticalAlign=middle;whiteSpace=wrap;rounded=0;rotation=295;" vertex="1" parent="1">
          <mxGeometry x="220" y="483" width="205" height="30" as="geometry" />
        </mxCell>
        <mxCell id="TtmzYOufV2jlAie-JXBO-139" style="edgeStyle=orthogonalEdgeStyle;rounded=0;orthogonalLoop=1;jettySize=auto;html=1;" edge="1" parent="1" source="TtmzYOufV2jlAie-JXBO-138" target="TtmzYOufV2jlAie-JXBO-124">
          <mxGeometry relative="1" as="geometry">
            <mxPoint x="-70" y="440" as="targetPoint" />
          </mxGeometry>
        </mxCell>
        <mxCell id="TtmzYOufV2jlAie-JXBO-138" value="Developer" style="aspect=fixed;sketch=0;html=1;dashed=0;whitespace=wrap;verticalLabelPosition=bottom;verticalAlign=top;fillColor=#2875E2;strokeColor=#ffffff;points=[[0.005,0.63,0],[0.1,0.2,0],[0.9,0.2,0],[0.5,0,0],[0.995,0.63,0],[0.72,0.99,0],[0.5,1,0],[0.28,0.99,0]];shape=mxgraph.kubernetes.icon2;prIcon=user" vertex="1" parent="1">
          <mxGeometry x="-220" y="522.25" width="82.81" height="79.5" as="geometry" />
        </mxCell>
        <mxCell id="TtmzYOufV2jlAie-JXBO-143" value="" style="group" vertex="1" connectable="0" parent="1">
          <mxGeometry x="-108" y="567.5" width="248" height="30" as="geometry" />
        </mxCell>
        <mxCell id="TtmzYOufV2jlAie-JXBO-141" value="&lt;font style=&quot;font-size: 20px;&quot;&gt;https://metrics.staytools.com&lt;/font&gt;" style="text;html=1;align=center;verticalAlign=middle;whiteSpace=wrap;rounded=0;" vertex="1" parent="TtmzYOufV2jlAie-JXBO-143">
          <mxGeometry x="43" width="205" height="30" as="geometry" />
        </mxCell>
        <mxCell id="TtmzYOufV2jlAie-JXBO-142" value="" style="sketch=0;pointerEvents=1;shadow=0;dashed=0;html=1;strokeColor=none;labelPosition=center;verticalLabelPosition=bottom;verticalAlign=top;outlineConnect=0;align=center;shape=mxgraph.office.security.lock_protected;fillColor=#7FBA42;" vertex="1" parent="TtmzYOufV2jlAie-JXBO-143">
          <mxGeometry y="6" width="20" height="20" as="geometry" />
        </mxCell>
        <mxCell id="TtmzYOufV2jlAie-JXBO-144" value="Route53 (DNS)" style="shape=image;verticalLabelPosition=bottom;labelBackgroundColor=default;verticalAlign=top;aspect=fixed;imageAspect=0;image=https://imgs.search.brave.com/nVLSdlerc7KcrYxXWpFaNpwJFbOwbk238yLHBMHuMyM/rs:fit:860:0:0/g:ce/aHR0cHM6Ly9zdGF0/aWMuY2RubG9nby5j/b20vbG9nb3MvYS81/L2F3cy1yb3V0ZTUz/LnN2Zw.svg;" vertex="1" parent="1">
          <mxGeometry x="379" y="443" width="70" height="70" as="geometry" />
        </mxCell>
        <mxCell id="TtmzYOufV2jlAie-JXBO-152" style="edgeStyle=orthogonalEdgeStyle;rounded=0;orthogonalLoop=1;jettySize=auto;html=1;" edge="1" parent="1" source="TtmzYOufV2jlAie-JXBO-148" target="TtmzYOufV2jlAie-JXBO-125">
          <mxGeometry relative="1" as="geometry" />
        </mxCell>
        <mxCell id="TtmzYOufV2jlAie-JXBO-148" value="Developer" style="aspect=fixed;sketch=0;html=1;dashed=0;whitespace=wrap;verticalLabelPosition=bottom;verticalAlign=top;fillColor=#2875E2;strokeColor=#ffffff;points=[[0.005,0.63,0],[0.1,0.2,0],[0.9,0.2,0],[0.5,0,0],[0.995,0.63,0],[0.72,0.99,0],[0.5,1,0],[0.28,0.99,0]];shape=mxgraph.kubernetes.icon2;prIcon=user" vertex="1" parent="1">
          <mxGeometry x="-210" y="665.25" width="82.81" height="79.5" as="geometry" />
        </mxCell>
        <mxCell id="TtmzYOufV2jlAie-JXBO-149" value="" style="group" vertex="1" connectable="0" parent="1">
          <mxGeometry x="-98" y="705.25" width="248" height="30" as="geometry" />
        </mxCell>
        <mxCell id="TtmzYOufV2jlAie-JXBO-150" value="&lt;font style=&quot;font-size: 20px;&quot;&gt;https://files.staytools.com&lt;/font&gt;" style="text;html=1;align=center;verticalAlign=middle;whiteSpace=wrap;rounded=0;" vertex="1" parent="TtmzYOufV2jlAie-JXBO-149">
          <mxGeometry x="43" width="205" height="30" as="geometry" />
        </mxCell>
        <mxCell id="TtmzYOufV2jlAie-JXBO-151" value="" style="sketch=0;pointerEvents=1;shadow=0;dashed=0;html=1;strokeColor=none;labelPosition=center;verticalLabelPosition=bottom;verticalAlign=top;outlineConnect=0;align=center;shape=mxgraph.office.security.lock_protected;fillColor=#7FBA42;" vertex="1" parent="TtmzYOufV2jlAie-JXBO-149">
          <mxGeometry y="6" width="20" height="20" as="geometry" />
        </mxCell>
      </root>
    </mxGraphModel>
  </diagram>
</mxfile>
